<svg xmlns="http://www.w3.org/2000/svg" xmlns:xlink="http://www.w3.org/1999/xlink" style="display:none;">
<symbol id="target" viewBox="0 0 329.015 329.015">
<g>
	<g>
		<g>
			<path d="M164.508,71.909c-51.059,0-92.599,41.54-92.599,92.599c0,51.059,41.54,92.599,92.599,92.599s92.599-41.54,92.599-92.599
				C257.107,113.449,215.568,71.909,164.508,71.909z M164.508,239.107c-41.134,0-74.599-33.465-74.599-74.599
				c0-41.134,33.465-74.599,74.599-74.599c41.134,0,74.599,33.465,74.599,74.599C239.107,205.642,205.643,239.107,164.508,239.107z"
				/>
			<path d="M164.508,137.639c-14.815,0-26.869,12.053-26.869,26.869c0,14.816,12.053,26.869,26.869,26.869
				c14.816,0,26.869-12.053,26.869-26.869C191.378,149.692,179.323,137.639,164.508,137.639z M164.508,173.376
				c-4.89,0-8.869-3.979-8.869-8.869c0-4.89,3.979-8.869,8.869-8.869s8.869,3.979,8.869,8.869
				C173.378,169.397,169.398,173.376,164.508,173.376z"/>
			<path d="M320.016,155.508h-8.934C306.596,81.685,247.333,22.42,173.51,17.935V9c0-4.971-4.029-9-9-9c-4.971,0-9,4.029-9,9v8.934
				C81.685,22.42,22.42,81.685,17.935,155.508H9c-4.971,0-9,4.029-9,9s4.029,9,9,9h8.934
				c4.486,73.823,63.75,133.088,137.573,137.573v8.934c0,4.971,4.029,9,9,9s9-4.029,9-9v-8.934
				c73.823-4.486,133.088-63.75,137.573-137.573h8.934c4.971,0,9-4.029,9-9S324.987,155.508,320.016,155.508z M293.047,173.486
				c-4.42,63.912-55.649,115.141-119.561,119.561c-0.228-4.768-4.154-8.566-8.978-8.566s-8.75,3.798-8.978,8.566
				c-63.912-4.421-115.141-55.65-119.561-119.562c4.768-0.228,8.566-4.154,8.566-8.978c0-4.824-3.798-8.75-8.566-8.978
				c4.42-63.911,55.649-115.14,119.561-119.561c0.228,4.768,4.154,8.566,8.978,8.566s8.75-3.798,8.978-8.566
				c63.912,4.421,115.141,55.65,119.561,119.562c-4.768,0.228-8.566,4.154-8.566,8.978S288.279,173.258,293.047,173.486z"/>
		</g>
	</g>
</g>
</symbol>


<symbol id="phone" viewBox="0 0 201.629 201.629">
<path d="M139.321,201.629c-1.457,0-2.925-0.14-4.387-0.426c-0.04-0.006-0.08-0.012-0.12-0.019
	c-2.116-0.364-52.265-9.341-89.971-47.047C14.447,123.742,4.194,84.726,1.17,69.123c-0.564-1.856-0.888-3.791-0.962-5.757
	c-0.023-0.219-0.029-0.438-0.018-0.656c-0.054-6.129,2.288-11.87,6.615-16.197l12.818-12.818c0.75-0.75,1.768-1.172,2.828-1.172
	s2.078,0.422,2.828,1.172l41.479,41.48c1.563,1.562,1.563,4.095,0,5.656L53.942,93.649c-0.327,0.327-0.656,0.637-0.992,0.935
	c-5.987,5.316-7.148,14.626-2.694,21.65c4.279,6.747,9.12,12.838,14.387,18.105c6.239,6.238,13.642,11.89,22.001,16.795
	c6.837,4.012,15.627,2.726,21.379-3.127l0.139-0.14l12.818-12.817c1.563-1.563,4.094-1.563,5.656,0l41.479,41.479
	c1.563,1.562,1.563,4.095,0,5.656l-12.817,12.818C151.006,199.296,145.262,201.629,139.321,201.629z M135.976,193.265
	c0.11,0.014,0.22,0.031,0.329,0.054c4.857,1.008,9.843-0.478,13.337-3.971l9.988-9.989l-35.822-35.822l-10.104,10.104
	c-8.302,8.448-21.105,10.265-31.108,4.396c-8.946-5.25-16.889-11.319-23.608-18.039c-5.682-5.682-10.893-12.234-15.486-19.478
	c-6.531-10.301-4.75-24.024,4.145-31.923c0.226-0.198,0.438-0.4,0.646-0.608l9.984-9.984L22.452,42.18l-9.99,9.989
	c-2.832,2.833-4.348,6.609-4.27,10.637c0.003,0.044,0.005,0.087,0.006,0.131c0.04,1.376,0.266,2.725,0.672,4.008
	c0.046,0.147,0.084,0.298,0.113,0.45c2.831,14.729,12.544,52.113,41.517,81.087C85.282,183.264,132.552,192.626,135.976,193.265z
	 M197.444,110.944c-2.209,0-4-1.791-4-4C193.444,52.387,149.058,8,94.5,8c-2.209,0-4-1.791-4-4s1.791-4,4-4
	c58.97,0,106.944,47.975,106.944,106.944C201.444,109.153,199.653,110.944,197.444,110.944z M172.624,110.944c-2.209,0-4-1.791-4-4
	c0-41.226-33.539-74.765-74.764-74.765c-2.209,0-4-1.791-4-4s1.791-4,4-4c45.636,0,82.764,37.128,82.764,82.765
	C176.624,109.153,174.833,110.944,172.624,110.944z M147.866,110.944c-2.209,0-4-1.791-4-4c0-27.573-22.433-50.006-50.006-50.006
	c-2.209,0-4-1.791-4-4s1.791-4,4-4c31.984,0,58.006,26.021,58.006,58.006C151.866,109.153,150.075,110.944,147.866,110.944z"/>
</symbol>

<symbol id="airplane" viewBox="0 0 461.456 461.456">
<g>
	<g>
		<g>
			<path d="M397.001,230.594V108.228c0-3.456-2.22-6.522-5.504-7.601c-3.286-1.081-6.89,0.074-8.938,2.858l-89.602,121.742H97.332
				c-24.454,0-47.979,8.957-66.24,25.221L7.844,271.155c-5.414,4.822-8.255,11.737-7.796,18.973
				c0.46,7.235,4.154,13.735,10.134,17.833l14.193,9.725c16.647,11.406,36.113,17.435,56.295,17.436l92.36-0.347l110.156,96.472
				c1.505,1.318,3.386,1.982,5.272,1.982c0.006,0,0.013,0,0.019,0c4.419,0,8-3.582,8-8c0-1.544-0.438-2.987-1.196-4.21
				l-45.658-86.531l68.864-0.259c2.483-0.009,4.821-1.171,6.329-3.146l71-93C397.46,235.928,397.881,233.112,397.001,230.594z
				 M261.21,390.731l-112.476-98.503h60.501L261.21,390.731z M314.488,318.243l-73.29,0.276l-20.063-38.024
				c-1.385-2.625-4.108-4.267-7.076-4.267h-86.603c-3.332,0-6.315,2.065-7.488,5.185c-1.173,3.119-0.289,6.638,2.218,8.833
				l32.653,28.597l-73.854,0.278h-0.314c-16.94,0-33.279-5.061-47.251-14.635l-14.193-9.725c-1.895-1.298-3.064-3.357-3.21-5.649
				s0.755-4.482,2.47-6.01l23.248-20.705c15.328-13.651,35.073-21.169,55.599-21.169h199.669h76.283L314.488,318.243z
				 M381.001,225.228h-68.179l68.179-92.634V225.228z"/>
			<path d="M65.456,264.228c-4.418,0-8,3.582-8,8v11c0,4.418,3.581,8,8,8s8-3.582,8-8v-11
				C73.456,267.81,69.875,264.228,65.456,264.228z"/>
			<path d="M92.456,264.228c-4.418,0-8,3.582-8,8v11c0,4.418,3.582,8,8,8c4.419,0,8-3.582,8-8v-11
				C100.456,267.81,96.875,264.228,92.456,264.228z"/>
			<path d="M247.456,264.228c-4.419,0-8,3.582-8,8v11c0,4.418,3.581,8,8,8s8-3.582,8-8v-11
				C255.456,267.81,251.875,264.228,247.456,264.228z"/>
			<path d="M274.456,264.228c-4.418,0-8,3.582-8,8v11c0,4.418,3.582,8,8,8c4.418,0,8-3.582,8-8v-11
				C282.456,267.81,278.875,264.228,274.456,264.228z"/>
			<path d="M293.001,272.228v11c0,4.418,3.582,8,8,8c4.418,0,8-3.582,8-8v-11c0-4.418-3.582-8-8-8
				C296.582,264.228,293.001,267.81,293.001,272.228z"/>
			<path d="M453.456,249.121h-8c-4.418,0-8,3.581-8,8c0,4.418,3.582,8,8,8h8c4.418,0,8-3.582,8-8
				C461.456,252.703,457.875,249.121,453.456,249.121z"/>
			<path d="M405.456,265.121h8c4.418,0,8-3.582,8-8c0-4.419-3.582-8-8-8h-8c-4.418,0-8,3.581-8,8S401.038,265.121,405.456,265.121z"
				/>
			<path d="M433.456,284.121h-8c-4.418,0-8,3.582-8,8c0,4.418,3.582,8,8,8h8c4.418,0,8-3.582,8-8
				C441.456,287.703,437.875,284.121,433.456,284.121z"/>
			<path d="M401.456,292.121c0-4.418-3.582-8-8-8h-8c-4.418,0-8,3.582-8,8c0,4.418,3.582,8,8,8h8
				C397.875,300.121,401.456,296.54,401.456,292.121z"/>
			<path d="M373.456,319.121h-8c-4.418,0-8,3.582-8,8c0,4.418,3.582,8,8,8h8c4.418,0,8-3.582,8-8
				C381.456,322.703,377.875,319.121,373.456,319.121z"/>
			<path d="M413.456,319.121h-8c-4.418,0-8,3.582-8,8c0,4.418,3.582,8,8,8h8c4.418,0,8-3.582,8-8
				C421.456,322.703,417.875,319.121,413.456,319.121z"/>
			<path d="M38.755,112.228h108.9c-1.474,2.232-2.789,4.584-3.916,7.045c-2.91-0.149-5.859,0.076-8.738,0.67
				c-15.128,3.125-26.223,16.111-26.98,31.565l-0.017,0.387c-0.204,5.327,1.732,10.388,5.451,14.252
				c3.718,3.863,8.926,6.079,14.289,6.079h153.48c10.782,0,19.643-8.764,19.752-19.54c0.003-0.307,0.003-0.615,0-0.928
				c-0.255-24.971-20.019-44.531-44.994-44.531h-0.153c-6.959,0.023-13.651,1.601-19.74,4.615
				c-5.922-8.885-14.364-15.694-24.102-19.67c0-0.138,0.001-0.274,0-0.413c-0.255-24.971-20.019-44.531-44.994-44.531h-0.153
				c-6.959,0.023-13.651,1.601-19.74,4.615c-9.718-14.582-26.202-23.615-44.111-23.615c-20.797,0-39.735,12.469-48.239,31.045
				c-2.91-0.15-5.859,0.075-8.738,0.67c-15.128,3.125-26.223,16.111-26.98,31.565l-0.017,0.387
				c-0.204,5.327,1.732,10.388,5.451,14.252C28.184,110.012,33.392,112.228,38.755,112.228z M225.848,126.323
				c0.996,2.261,2.98,3.935,5.377,4.535c2.396,0.6,4.936,0.06,6.879-1.464c5.12-4.013,11.267-6.145,17.778-6.167h0.101
				c16.094,0,28.83,12.605,28.995,28.69c0.002,0.206,0.002,0.411,0,0.612c-0.021,2.039-1.705,3.698-3.753,3.698h-153.48
				c-1.419,0-2.338-0.735-2.76-1.174c-0.478-0.497-1.037-1.341-0.991-2.539l0.009-0.207c0.395-8.051,6.382-15.072,14.236-16.695
				c1.237-0.255,2.495-0.385,3.741-0.385c1.626,0,3.239,0.218,4.794,0.649c4.187,1.159,8.536-1.234,9.794-5.393
				c4.676-15.459,19.238-26.256,35.413-26.256C206.64,104.228,219.934,112.901,225.848,126.323z M35.012,92.308
				c0.395-8.051,6.382-15.072,14.236-16.695c1.237-0.255,2.495-0.385,3.741-0.385c1.626,0,3.239,0.218,4.794,0.649
				c4.188,1.159,8.536-1.234,9.794-5.393c4.676-15.459,19.238-26.256,35.413-26.256c14.661,0,27.956,8.673,33.869,22.095
				c0.996,2.261,2.98,3.935,5.377,4.535c2.395,0.599,4.936,0.06,6.879-1.464c5.12-4.013,11.267-6.145,17.778-6.167h0.101
				c14.889,0,26.897,10.792,28.742,25.144c-1.245-0.088-2.496-0.144-3.757-0.144c-10.034,0-19.631,2.909-27.837,8H38.755
				c-1.419,0-2.338-0.735-2.76-1.174c-0.478-0.497-1.037-1.341-0.991-2.539L35.012,92.308z"/>
		</g>
	</g>
</g>
</symbol>

<symbol id="container" viewBox="0 0 512 512"><path d="M247 16v89h9c14.9 0 23 11.7 23.8 23.6.4 6-1.2 11.5-4.7 15.4-3.5 4-9.1 7-19.1 7-5 0-11.1-2.8-15.6-7.4-4.6-4.5-7.4-10.6-7.4-15.6h-18c0 11 5.2 20.9 12.6 28.4 7.5 7.4 17.4 12.6 28.4 12.6 14 0 25.4-5 32.5-13 7.2-8.1 10-18.6 9.3-28.6-1.2-17.5-13.4-35.18-32.8-39.42V16h-18zm-47.9 140.5L61.34 247h32.7l114.86-75.5-9.8-15zm113.8 0l-9.8 15L418 247h32.6l-137.7-90.5zM41 265v222h430V265H41zm38 23h18v176H79V288zm48 0h18v176h-18V288zm48 0h18v176h-18V288zm48 0h18v176h-18V288zm48 0h18v176h-18V288zm48 0h18v176h-18V288zm48 0h18v176h-18V288zm48 0h18v176h-18V288z"/></symbol>

<symbol id="lifter" viewBox="0 0 486.18 486.18">
<path d="M469.609,417.354H355.298c-0.696-5.543-1.894-10.923-4.014-15.883V119.082c0-9.15-7.412-16.571-16.57-16.571
	c-9.161,0-16.571,7.42-16.571,16.571V369.39c-2.995-1.181-6.085-2.2-9.289-2.888V189.345c0-103.478-84.179-187.667-187.667-187.667
	c-27.283,0-49.485,22.203-49.485,49.487v236.593h-7.443c-16.798,0-30.472,13.674-30.472,30.48v68.588
	C14.174,393.711,0,412.216,0,434.152c0,27.761,22.574,50.35,50.327,50.35c22.024,0,40.585-14.289,47.414-34.006h144.977
	c9.629,20.034,29.954,34.006,53.628,34.006c23.691,0,44.033-13.973,53.677-34.006h119.587c9.159,0,16.571-7.42,16.571-16.571
	C486.18,424.774,478.768,417.354,469.609,417.354z M121.188,34.82c85.2,0,154.525,69.316,154.525,154.525v98.413h-66.898
	c2.784-2.962,4.547-6.877,4.547-11.255c0-9.15-7.411-16.571-16.571-16.571h-62.14v-80.094c0-9.15-7.41-16.571-16.571-16.571
	c-5.549,0-10.227,2.913-13.236,7.104V51.165C104.844,42.151,112.175,34.82,121.188,34.82z M71.703,320.899h204.01v48.135
	c-20.453,7.598-35.455,26.004-38.27,48.32H97.611c-5.097-14.272-16.377-25.479-30.682-30.512v-65.943H71.703z M50.327,459.646
	c-14.047,0-25.471-11.441-25.471-25.494c0-14.055,11.424-25.487,25.471-25.487c14.079,0,25.519,11.432,25.519,25.487
	C75.845,448.205,64.405,459.646,50.327,459.646z M296.345,459.646c-19.192,0-34.807-15.623-34.807-34.832
	c0-19.2,15.615-34.825,34.807-34.825c19.225,0,34.858,15.624,34.858,34.825C331.203,444.023,315.57,459.646,296.345,459.646z"/>
</symbol>

<symbol id="ship" viewBox="0 0 512 512">
<g>
	<g>
		<g>
			<rect x="104.167" y="284.083" width="15.674" height="16"/>
			<rect x="144.167" y="284.083" width="15.674" height="16"/>
			<rect x="184.166" y="284.083" width="15.674" height="16"/>
			<rect x="224.165" y="284.083" width="15.674" height="16"/>
			<rect x="264.164" y="284.083" width="15.674" height="16"/>
			
				<rect x="304.18" y="145.668" transform="matrix(-0.8321 -0.5547 0.5547 -0.8321 482.836 466.3658)" width="15.674" height="28.845"/>
			
				<rect x="336.173" y="145.663" transform="matrix(-0.8321 -0.5547 0.5547 -0.8321 541.454 484.1027)" width="15.674" height="28.846"/>
			<path d="M436.681,420.248l72.001-144h-92.844v-64.001h-32v-88H272.163v88h-32.326V76.248h-95.674v136h-80v112h-48v7.837
				c0,37.157,19.621,69.812,49.043,88.164H0v15.674h376.169v0.168h15.674v-0.168H512v-15.674H436.681z M287.837,139.921h80.327
				v40.326h-80.327V139.921z M287.837,195.922h80.327v16.327h-80.327V195.922z M159.837,91.921h64.327v8.326h-64.327V91.921z
				 M159.837,115.921h64.327v96.326h-64.327V115.921z M79.837,227.921h320.326v16.327H79.837V227.921z M79.837,259.922h320.326
				v16.327h-75.062l-56,48H79.837V259.922z M419.157,420.248h-27.315v-0.159h-15.674v0.159H120
				c-19.006,0-36.616-6.057-51.029-16.327h358.35L419.157,420.248z M52.091,388.247v0.001
				c-11.079-13.373-18.292-30.058-19.909-48.327H274.9l56-48h152.421l-48.163,96.326H52.091z"/>
			<polygon points="352.001,331.921 376.163,331.921 376.163,340.084 391.837,340.084 391.837,331.921 416.001,331.921 
				416.001,316.248 352.001,316.248 			"/>
			<polygon points="391.837,357.441 391.837,348.085 376.163,348.085 376.163,357.441 364.348,349.565 355.653,362.605 384,381.503 
				412.348,362.605 403.653,349.565 			"/>
			<polygon points="384,100.247 335.837,100.247 335.837,84.085 320.163,84.085 320.163,100.247 303.837,100.247 303.837,44.084 
				288.163,44.084 288.163,100.247 272,100.247 272,115.921 384,115.921 			"/>
			<rect x="320.161" y="60.085" width="15.674" height="16.001"/>
			<rect x="288.166" y="20.084" width="15.674" height="16.001"/>
			<rect x="56" y="452.251" width="32" height="15.674"/>
			<rect x="143.999" y="476.243" width="88.003" height="15.674"/>
			<rect x="239.996" y="452.251" width="32" height="15.674"/>
			<rect x="95.996" y="468.249" width="16.001" height="15.674"/>
			<rect x="391.999" y="452.251" width="88.003" height="15.674"/>
			<rect x="360.004" y="468.249" width="24.001" height="15.674"/>
			<rect x="72" y="348.251" width="79.998" height="15.674"/>
		</g>
	</g>
</g>

</symbol>

<symbol id="truck" viewBox="0 0 60 60">
<g>
	<g>
		<path d="M59.7,30.3l-8-9C51.6,21.1,51.3,21,51,21h-7V8c0-0.6-0.4-1-1-1H20v2h22v13v15H19v2h23v4H22v2h21c0.6,0,1-0.4,1-1v-6V23
			h6.6l6.2,7H50v2h8v12h2V31C60,30.7,59.9,30.5,59.7,30.3z"/>
		<path d="M14,41c-3.3,0-6,2.7-6,6s2.7,6,6,6s6-2.7,6-6S17.3,41,14,41z M14,51c-2.2,0-4-1.8-4-4s1.8-4,4-4s4,1.8,4,4S16.2,51,14,51z
			"/>
		<path d="M51,41c-3.3,0-6,2.7-6,6s2.7,6,6,6s6-2.7,6-6S54.3,41,51,41z M51,51c-2.2,0-4-1.8-4-4s1.8-4,4-4s4,1.8,4,4S53.2,51,51,51z
			"/>
		<rect x="50" y="35" width="3" height="2"/>
		<circle cx="14" cy="47" r="2"/>
		<circle cx="51" cy="47" r="2"/>
		<rect y="43" width="6" height="2"/>
		<rect y="7" width="17" height="2"/>
		<rect x="3" y="15" width="19" height="2"/>
		<rect x="11" y="23" width="19" height="2"/>
		<rect y="32" width="14" height="2"/>
		<rect x="4" y="23" width="4" height="2"/>
	</g>
</g>
</symbol>

<symbol id="arrowCircle" viewBox="0 0 300 300">
<g>
	<g>
		<path d="M150,0C67.157,0,0,67.157,0,150c0,82.841,67.157,150,150,150s150-67.159,150-150C300,67.157,232.843,0,150,0z
			 M195.708,160.159c-0.731,0.731-1.533,1.349-2.368,1.886l-56.295,56.295c-2.734,2.736-6.318,4.103-9.902,4.103
			s-7.166-1.367-9.902-4.103c-5.47-5.47-5.47-14.34,0-19.808l48.509-48.516l-48.265-48.265c-5.47-5.473-5.47-14.34,0-19.808
			c5.47-5.47,14.338-5.467,19.808-0.003l56.046,56.043c0.835,0.537,1.637,1.154,2.365,1.886c2.796,2.796,4.145,6.479,4.082,10.146
			C199.852,153.68,198.506,157.361,195.708,160.159z"/>
	</g>
</g>
</symbol>


<symbol id="twitter" viewBox="0 0 310 310">
<g id="XMLID_826_">
	<path id="XMLID_827_" d="M302.973,57.388c-4.87,2.16-9.877,3.983-14.993,5.463c6.057-6.85,10.675-14.91,13.494-23.73
		c0.632-1.977-0.023-4.141-1.648-5.434c-1.623-1.294-3.878-1.449-5.665-0.39c-10.865,6.444-22.587,11.075-34.878,13.783
		c-12.381-12.098-29.197-18.983-46.581-18.983c-36.695,0-66.549,29.853-66.549,66.547c0,2.89,0.183,5.764,0.545,8.598
		C101.163,99.244,58.83,76.863,29.76,41.204c-1.036-1.271-2.632-1.956-4.266-1.825c-1.635,0.128-3.104,1.05-3.93,2.467
		c-5.896,10.117-9.013,21.688-9.013,33.461c0,16.035,5.725,31.249,15.838,43.137c-3.075-1.065-6.059-2.396-8.907-3.977
		c-1.529-0.851-3.395-0.838-4.914,0.033c-1.52,0.871-2.473,2.473-2.513,4.224c-0.007,0.295-0.007,0.59-0.007,0.889
		c0,23.935,12.882,45.484,32.577,57.229c-1.692-0.169-3.383-0.414-5.063-0.735c-1.732-0.331-3.513,0.276-4.681,1.597
		c-1.17,1.32-1.557,3.16-1.018,4.84c7.29,22.76,26.059,39.501,48.749,44.605c-18.819,11.787-40.34,17.961-62.932,17.961
		c-4.714,0-9.455-0.277-14.095-0.826c-2.305-0.274-4.509,1.087-5.294,3.279c-0.785,2.193,0.047,4.638,2.008,5.895
		c29.023,18.609,62.582,28.445,97.047,28.445c67.754,0,110.139-31.95,133.764-58.753c29.46-33.421,46.356-77.658,46.356-121.367
		c0-1.826-0.028-3.67-0.084-5.508c11.623-8.757,21.63-19.355,29.773-31.536c1.237-1.85,1.103-4.295-0.33-5.998
		C307.394,57.037,305.009,56.486,302.973,57.388z"/>
</g>
</symbol>

<symbol id="facebook" viewBox="0 0 310 310">
<g id="XMLID_834_">
	<path id="XMLID_835_" d="M81.703,165.106h33.981V305c0,2.762,2.238,5,5,5h57.616c2.762,0,5-2.238,5-5V165.765h39.064
		c2.54,0,4.677-1.906,4.967-4.429l5.933-51.502c0.163-1.417-0.286-2.836-1.234-3.899c-0.949-1.064-2.307-1.673-3.732-1.673h-44.996
		V71.978c0-9.732,5.24-14.667,15.576-14.667c1.473,0,29.42,0,29.42,0c2.762,0,5-2.239,5-5V5.037c0-2.762-2.238-5-5-5h-40.545
		C187.467,0.023,186.832,0,185.896,0c-7.035,0-31.488,1.381-50.804,19.151c-21.402,19.692-18.427,43.27-17.716,47.358v37.752H81.703
		c-2.762,0-5,2.238-5,5v50.844C76.703,162.867,78.941,165.106,81.703,165.106z"/>
</g>
</symbol>

<symbol id="youtube" viewBox="0 0 310 310">
<g id="XMLID_822_">
	<path id="XMLID_823_" d="M297.917,64.645c-11.19-13.302-31.85-18.728-71.306-18.728H83.386c-40.359,0-61.369,5.776-72.517,19.938
		C0,79.663,0,100.008,0,128.166v53.669c0,54.551,12.896,82.248,83.386,82.248h143.226c34.216,0,53.176-4.788,65.442-16.527
		C304.633,235.518,310,215.863,310,181.835v-53.669C310,98.471,309.159,78.006,297.917,64.645z M199.021,162.41l-65.038,33.991
		c-1.454,0.76-3.044,1.137-4.632,1.137c-1.798,0-3.592-0.484-5.181-1.446c-2.992-1.813-4.819-5.056-4.819-8.554v-67.764
		c0-3.492,1.822-6.732,4.808-8.546c2.987-1.814,6.702-1.938,9.801-0.328l65.038,33.772c3.309,1.718,5.387,5.134,5.392,8.861
		C204.394,157.263,202.325,160.684,199.021,162.41z"/>
</g>
</symbol>
</svg>